<?xml version="1.0" encoding="UTF-8" standalone="no"?>
<!-- Created with Inkscape (http://www.inkscape.org/) -->

<svg
   width="82.967094mm"
   height="127.99447mm"
   viewBox="0 0 82.967094 127.99447"
   version="1.1"
   id="svg5"
   inkscape:version="1.2.2 (b0a8486, 2022-12-01)"
   sodipodi:docname="rivonline.svg"
   xmlns:inkscape="http://www.inkscape.org/namespaces/inkscape"
   xmlns:sodipodi="http://sodipodi.sourceforge.net/DTD/sodipodi-0.dtd"
   xmlns="http://www.w3.org/2000/svg"
   xmlns:svg="http://www.w3.org/2000/svg">
  <sodipodi:namedview
     id="namedview7"
     pagecolor="#ffffff"
     bordercolor="#000000"
     borderopacity="0.25"
     inkscape:showpageshadow="2"
     inkscape:pageopacity="0.0"
     inkscape:pagecheckerboard="0"
     inkscape:deskcolor="#d1d1d1"
     inkscape:document-units="mm"
     showgrid="false"
     inkscape:zoom="1.223496"
     inkscape:cx="-74.377033"
     inkscape:cy="266.85825"
     inkscape:window-width="1997"
     inkscape:window-height="1205"
     inkscape:window-x="519"
     inkscape:window-y="25"
     inkscape:window-maximized="0"
     inkscape:current-layer="layer1" />
  <defs
     id="defs2" />
  <g
     inkscape:label="Layer 1"
     inkscape:groupmode="layer"
     id="layer1"
     transform="translate(-57.394659,-43.406737)">
    <path
       style="fill:#2c8d83;fill-opacity:1;stroke:none;stroke-width:14.7197;stroke-dasharray:none;stroke-opacity:1"
       d="m 352.5301,587.88407 c -42.3028,-62.46649 -64.22887,-104.0872 -83.57485,-142.74001 -20.38007,-40.71888 -29.79831,-70.45955 -32.71159,-103.29578 -0.43727,-4.92859 -0.3345,-5.51568 0.96362,-5.50485 0.7992,0.007 6.72118,0.37182 13.15996,0.81146 37.51193,2.5613 65.1503,11.18222 78.78324,24.57396 3.03525,2.98154 6.25235,7.03813 7.14911,9.01464 1.93476,4.26432 2.13205,9.72164 0.46779,12.93996 -1.92787,3.72809 -7.96216,8.47742 -16.78703,13.21236 -22.90793,12.29112 -27.36804,17.32634 -24.9045,28.11581 4.28311,18.7585 28.23478,41.78422 68.63601,65.98258 13.44977,8.05575 35.90104,19.84429 51.73157,27.16276 7.73492,3.57588 14.0635,6.75353 14.0635,7.06145 0,1.08003 -58.50361,92.40841 -55.92445,94.13286 10.29973,6.88648 -10.92296,-16.50959 -21.05238,-31.4672 z"
       id="path6434"
       transform="scale(0.26458333)"
       sodipodi:nodetypes="ssscsssssssssss" />
    <path
       style="fill:#f5c857;fill-opacity:1;stroke:none;stroke-width:14.7197;stroke-dasharray:none;stroke-opacity:1"
       d="m 355.94723,418.9273 c 0.82989,-3.18244 2.25393,-7.66454 6.33871,-12.30561 4.49501,-5.10719 8.60537,-11.77846 10.82693,-17.5726 2.56423,-6.68782 2.62196,-16.89173 0.13179,-23.2939 -7.36477,-18.93465 -35.33831,-33.29597 -79.50847,-40.81881 -11.56493,-1.96968 -35.40844,-4.66494 -48.03612,-5.42997 l -9.3069,-0.56385 0.54088,-7.0367 c 1.25548,-16.33335 7.45556,-39.18044 14.76585,-54.4117 9.28553,-19.34674 27.08882,-40.02976 44.1965,-51.3454 35.73094,-23.63376 80.79064,-29.40825 122.08768,-15.64578 51.58932,17.19244 85.67515,61.10821 92.51484,119.19501 1.33899,11.37151 0.52727,34.43967 -1.61301,45.84057 -4.66072,24.82667 -1.83229,59.64321 -24.72758,86.43265 l -13.79581,16.14227 c -53.66593,8.80083 -111.75679,4.36513 -114.41529,-39.18618 z"
       id="path1875"
       transform="scale(0.26458333)"
       sodipodi:nodetypes="cssssscssssssscc" />
    <path
       style="fill:none;stroke:#20216a;stroke-width:5.065;stroke-dasharray:none;stroke-opacity:1"
       d="M 98.9036,166.86368 C 66.321317,119.91821 57.525682,100.73644 60.44109,80.106133 c 6.482535,-45.872379 70.22347,-45.238272 76.92502,0 3.08177,20.803207 -8.98645,41.509557 -38.46251,86.757547 z"
       id="path113"
       sodipodi:nodetypes="cssc" />
    <path
       style="fill:#20216a;fill-opacity:1;stroke:#20216a;stroke-width:1.429;stroke-dasharray:none;stroke-opacity:1"
       d="m 60.749297,84.413683 0.555843,4.742822 c -0.07111,-0.60672 25.223059,-0.258143 28.174818,9.937713 1.759684,6.078232 -12.700658,6.905872 -11.455866,12.899882 2.748167,13.23318 37.330128,27.39636 37.330128,27.39636 0,0 8.96219,-12.50898 11.53319,-18.72639 -27.473631,-2.6489 -37.474571,-6.32111 -31.182001,-13.10314 6.292571,-6.78202 8.837391,-21.305531 -34.956112,-23.147247 z"
       id="path1689"
       sodipodi:nodetypes="cssscczc" />
  </g>
</svg>
